<mxfile host="65bd71144e">
    <diagram id="6DJxAKlWB9YqBwUXdjjC" name="Page-1">
        <mxGraphModel dx="2809" dy="2384" grid="1" gridSize="10" guides="1" tooltips="1" connect="1" arrows="1" fold="1" page="1" pageScale="1" pageWidth="827" pageHeight="1169" math="0" shadow="0">
            <root>
                <mxCell id="0"/>
                <mxCell id="1" parent="0"/>
                <mxCell id="63" value=":Webserver {NodeJS}" style="verticalAlign=top;align=center;shape=cube;size=10;direction=south;fontStyle=0;html=1;boundedLbl=1;spacingLeft=5;fontSize=12;gradientColor=none;" parent="1" vertex="1">
                    <mxGeometry x="740" y="390" width="540" height="450" as="geometry"/>
                </mxCell>
                <mxCell id="59" value="game.html" style="verticalAlign=top;align=center;shape=cube;size=10;direction=south;fontStyle=0;html=1;boundedLbl=1;spacingLeft=5;fontSize=12;gradientColor=none;" parent="1" vertex="1">
                    <mxGeometry x="140" y="437" width="470" height="813" as="geometry"/>
                </mxCell>
                <mxCell id="83" style="edgeStyle=none;html=1;exitX=1;exitY=0.75;exitDx=0;exitDy=0;entryX=0.563;entryY=0.995;entryDx=0;entryDy=0;entryPerimeter=0;fontSize=12;" parent="1" source="81" target="16" edge="1">
                    <mxGeometry relative="1" as="geometry"/>
                </mxCell>
                <mxCell id="81" value="" style="shape=actor;whiteSpace=wrap;html=1;fontSize=12;gradientColor=none;" parent="1" vertex="1">
                    <mxGeometry x="20" y="79" width="40" height="60" as="geometry"/>
                </mxCell>
                <mxCell id="85" value="btn_skip Clicked" style="html=1;align=center;verticalAlign=middle;rounded=1;absoluteArcSize=1;arcSize=10;dashed=0;fontSize=12;gradientColor=none;" parent="1" vertex="1">
                    <mxGeometry x="474" y="790" width="120" height="30" as="geometry"/>
                </mxCell>
                <mxCell id="267" style="edgeStyle=none;html=1;exitX=0.5;exitY=1;exitDx=0;exitDy=0;entryX=0.394;entryY=0.015;entryDx=0;entryDy=0;entryPerimeter=0;endArrow=classic;endFill=1;" edge="1" parent="1" source="86" target="260">
                    <mxGeometry relative="1" as="geometry">
                        <Array as="points">
                            <mxPoint x="380" y="870"/>
                            <mxPoint x="461" y="870"/>
                        </Array>
                    </mxGeometry>
                </mxCell>
                <mxCell id="271" value="&amp;lt;call&amp;gt;" style="edgeLabel;html=1;align=center;verticalAlign=middle;resizable=0;points=[];fontSize=9;spacingBottom=-9;labelBackgroundColor=none;" vertex="1" connectable="0" parent="267">
                    <mxGeometry x="0.1633" y="-2" relative="1" as="geometry">
                        <mxPoint x="-22" y="-12" as="offset"/>
                    </mxGeometry>
                </mxCell>
                <mxCell id="86" value="btn_false Clicked" style="html=1;align=center;verticalAlign=middle;rounded=1;absoluteArcSize=1;arcSize=10;dashed=0;fontSize=12;gradientColor=none;" parent="1" vertex="1">
                    <mxGeometry x="320" y="790" width="120" height="30" as="geometry"/>
                </mxCell>
                <mxCell id="106" value="nextCard()" style="swimlane;fontStyle=1;align=center;verticalAlign=top;childLayout=stackLayout;horizontal=1;startSize=30;horizontalStack=0;resizeParent=1;resizeParentMax=0;resizeLast=0;collapsible=0;marginBottom=0;html=1;fontSize=12;gradientColor=none;" parent="1" vertex="1">
                    <mxGeometry x="370" y="480" width="224" height="250" as="geometry"/>
                </mxCell>
                <mxCell id="107" value="Get available Cards" style="html=1;strokeColor=none;fillColor=none;align=center;verticalAlign=middle;spacingLeft=4;spacingRight=4;rotatable=0;points=[[0,0.5],[1,0.5]];resizeWidth=1;fontSize=12;" parent="106" vertex="1">
                    <mxGeometry y="30" width="224" height="30" as="geometry"/>
                </mxCell>
                <mxCell id="108" value="" style="swimlane;fontStyle=1;align=center;verticalAlign=top;horizontal=1;startSize=0;collapsible=0;marginBottom=0;html=1;strokeColor=none;fillColor=none;fontSize=12;" parent="106" vertex="1">
                    <mxGeometry y="60" width="224" height="190" as="geometry"/>
                </mxCell>
                <mxCell id="109" value="cards" style="html=1;align=center;verticalAlign=middle;rotatable=0;fontSize=12;gradientColor=none;" parent="108" vertex="1">
                    <mxGeometry width="210" height="30" relative="1" as="geometry">
                        <mxPoint x="7" as="offset"/>
                    </mxGeometry>
                </mxCell>
                <mxCell id="124" style="edgeStyle=none;html=1;exitX=0.5;exitY=1;exitDx=0;exitDy=0;fontSize=12;" parent="108" source="110" target="123" edge="1">
                    <mxGeometry relative="1" as="geometry"/>
                </mxCell>
                <mxCell id="110" value="cardInfos" style="html=1;align=center;verticalAlign=middle;rotatable=0;fontSize=12;gradientColor=none;" parent="108" vertex="1">
                    <mxGeometry width="210" height="30" relative="1" as="geometry">
                        <mxPoint x="7" y="105" as="offset"/>
                    </mxGeometry>
                </mxCell>
                <mxCell id="115" value="Get Card Infos" style="html=1;strokeColor=none;fillColor=none;align=center;verticalAlign=middle;spacingLeft=4;spacingRight=4;rotatable=0;points=[[0,0.5],[1,0.5]];resizeWidth=1;fontSize=12;" parent="108" vertex="1">
                    <mxGeometry y="75" width="224" height="30" as="geometry"/>
                </mxCell>
                <mxCell id="119" value="Select random Card" style="endArrow=open;startArrow=none;endFill=0;startFill=0;endSize=8;html=1;verticalAlign=bottom;labelBackgroundColor=none;fontSize=12;exitX=0.4;exitY=1.1;exitDx=0;exitDy=0;exitPerimeter=0;entryX=0.406;entryY=0.067;entryDx=0;entryDy=0;entryPerimeter=0;" parent="108" source="109" target="115" edge="1">
                    <mxGeometry x="0.2236" y="59" width="160" relative="1" as="geometry">
                        <mxPoint x="10" y="-50" as="sourcePoint"/>
                        <mxPoint x="112" y="80" as="targetPoint"/>
                        <mxPoint as="offset"/>
                    </mxGeometry>
                </mxCell>
                <mxCell id="123" value="Display {in Class: Cards}" style="html=1;strokeColor=none;fillColor=none;align=center;verticalAlign=middle;spacingLeft=4;spacingRight=4;rotatable=0;points=[[0,0.5],[1,0.5]];resizeWidth=1;fontSize=12;" parent="108" vertex="1">
                    <mxGeometry y="160" width="224" height="30" as="geometry"/>
                </mxCell>
                <mxCell id="127" value="" style="endArrow=open;startArrow=none;endFill=0;startFill=0;endSize=8;html=1;verticalAlign=bottom;labelBackgroundColor=none;fontSize=12;exitX=1;exitY=0.5;exitDx=0;exitDy=0;entryX=0;entryY=0.25;entryDx=0;entryDy=0;" parent="1" source="107" target="131" edge="1">
                    <mxGeometry x="0.1176" y="5" width="160" relative="1" as="geometry">
                        <mxPoint x="650" y="530" as="sourcePoint"/>
                        <mxPoint x="730" y="525" as="targetPoint"/>
                        <mxPoint as="offset"/>
                    </mxGeometry>
                </mxCell>
                <mxCell id="167" value="GET &quot;./db_cards/cards&quot;" style="edgeLabel;html=1;align=center;verticalAlign=middle;resizable=0;points=[];fontSize=9;" parent="127" vertex="1" connectable="0">
                    <mxGeometry x="0.0844" relative="1" as="geometry">
                        <mxPoint x="-15" y="-7" as="offset"/>
                    </mxGeometry>
                </mxCell>
                <mxCell id="155" style="edgeStyle=none;html=1;exitX=1;exitY=0.5;exitDx=0;exitDy=0;entryX=0;entryY=0.5;entryDx=0;entryDy=0;fontSize=12;startArrow=classic;startFill=1;" parent="1" source="161" target="154" edge="1">
                    <mxGeometry relative="1" as="geometry"/>
                </mxCell>
                <mxCell id="129" value="getCards()" style="swimlane;fontStyle=1;align=center;verticalAlign=top;childLayout=stackLayout;horizontal=1;startSize=30;horizontalStack=0;resizeParent=1;resizeParentMax=0;resizeLast=0;collapsible=0;marginBottom=0;html=1;fontSize=12;gradientColor=none;" parent="1" vertex="1">
                    <mxGeometry x="770" y="460" width="140" height="170" as="geometry"/>
                </mxCell>
                <mxCell id="131" value="" style="swimlane;fontStyle=1;align=center;verticalAlign=top;horizontal=1;startSize=0;collapsible=0;marginBottom=0;html=1;strokeColor=none;fillColor=none;fontSize=12;" parent="129" vertex="1">
                    <mxGeometry y="30" width="140" height="140" as="geometry"/>
                </mxCell>
                <mxCell id="132" value="Language" style="html=1;align=center;verticalAlign=middle;rotatable=0;fontSize=12;gradientColor=none;" parent="131" vertex="1">
                    <mxGeometry width="100" height="30" relative="1" as="geometry">
                        <mxPoint x="20" y="20" as="offset"/>
                    </mxGeometry>
                </mxCell>
                <mxCell id="133" value="Cards" style="html=1;align=center;verticalAlign=middle;rotatable=0;fontSize=12;gradientColor=none;" parent="131" vertex="1">
                    <mxGeometry width="100" height="30" relative="1" as="geometry">
                        <mxPoint x="20" y="90" as="offset"/>
                    </mxGeometry>
                </mxCell>
                <mxCell id="134" value="" style="edgeStyle=none;endArrow=none;verticalAlign=middle;labelBackgroundColor=none;endSize=12;html=1;align=left;endFill=0;exitX=0.15;exitY=1;entryX=0.15;entryY=0;spacingLeft=4;fontSize=12;" parent="131" source="132" target="133" edge="1">
                    <mxGeometry relative="1" as="geometry"/>
                </mxCell>
                <mxCell id="140" style="edgeStyle=none;html=1;exitX=0;exitY=0.5;exitDx=0;exitDy=0;fontSize=12;entryX=1;entryY=0.5;entryDx=0;entryDy=0;dashed=1;" parent="1" source="131" target="109" edge="1">
                    <mxGeometry relative="1" as="geometry">
                        <mxPoint x="640" y="560" as="targetPoint"/>
                    </mxGeometry>
                </mxCell>
                <mxCell id="168" value="data {Cards}" style="edgeLabel;html=1;align=center;verticalAlign=middle;resizable=0;points=[];fontSize=9;" parent="140" vertex="1" connectable="0">
                    <mxGeometry x="0.2142" y="-1" relative="1" as="geometry">
                        <mxPoint x="19" y="-9" as="offset"/>
                    </mxGeometry>
                </mxCell>
                <mxCell id="154" value="&lt;p style=&quot;margin: 0px ; margin-top: 4px ; text-align: center&quot;&gt;&lt;i&gt;&amp;lt;&amp;lt;cards_de&amp;gt;&amp;gt;&lt;/i&gt;&lt;br&gt;&lt;/p&gt;&lt;hr size=&quot;1&quot;&gt;&lt;p style=&quot;margin: 0px ; margin-left: 4px&quot;&gt;+ name: Text&lt;br&gt;+ word_1: Text&lt;/p&gt;&lt;p style=&quot;margin: 0px ; margin-left: 4px&quot;&gt;+ word_2: Text&lt;/p&gt;&lt;p style=&quot;margin: 0px ; margin-left: 4px&quot;&gt;+ word_3: Text&lt;/p&gt;&lt;p style=&quot;margin: 0px ; margin-left: 4px&quot;&gt;+ word_4: Text&lt;/p&gt;&lt;p style=&quot;margin: 0px ; margin-left: 4px&quot;&gt;+ word_5: Text&lt;/p&gt;" style="verticalAlign=top;align=left;overflow=fill;fontSize=12;fontFamily=Helvetica;html=1;gradientColor=none;" parent="1" vertex="1">
                    <mxGeometry x="1160" y="565" width="100" height="120" as="geometry"/>
                </mxCell>
                <mxCell id="161" value="spielekarten.db" style="shape=datastore;whiteSpace=wrap;html=1;fontSize=12;gradientColor=none;verticalAlign=middle;" parent="1" vertex="1">
                    <mxGeometry x="1030" y="570" width="90" height="110" as="geometry"/>
                </mxCell>
                <mxCell id="164" style="edgeStyle=none;html=1;exitX=1;exitY=0.75;exitDx=0;exitDy=0;entryX=0;entryY=0.5;entryDx=0;entryDy=0;fontSize=12;startArrow=classic;startFill=1;endArrow=none;endFill=0;dashed=1;" parent="1" source="131" target="161" edge="1">
                    <mxGeometry relative="1" as="geometry"/>
                </mxCell>
                <mxCell id="166" value="*name" style="edgeLabel;html=1;align=center;verticalAlign=middle;resizable=0;points=[];fontSize=7;rotation=15;" parent="164" vertex="1" connectable="0">
                    <mxGeometry relative="1" as="geometry">
                        <mxPoint as="offset"/>
                    </mxGeometry>
                </mxCell>
                <mxCell id="163" style="edgeStyle=none;html=1;exitX=1;exitY=0.25;exitDx=0;exitDy=0;entryX=0;entryY=0.3;entryDx=0;entryDy=0;fontSize=12;startArrow=none;startFill=0;" parent="1" source="131" target="161" edge="1">
                    <mxGeometry relative="1" as="geometry"/>
                </mxCell>
                <mxCell id="165" value="Select &quot;names&quot;" style="edgeLabel;html=1;align=center;verticalAlign=middle;resizable=0;points=[];fontSize=7;rotation=33;labelBackgroundColor=none;" parent="163" vertex="1" connectable="0">
                    <mxGeometry relative="1" as="geometry">
                        <mxPoint x="7" as="offset"/>
                    </mxGeometry>
                </mxCell>
                <mxCell id="170" value="getCardsInfos()" style="swimlane;fontStyle=1;align=center;verticalAlign=top;childLayout=stackLayout;horizontal=1;startSize=30;horizontalStack=0;resizeParent=1;resizeParentMax=0;resizeLast=0;collapsible=0;marginBottom=0;html=1;fontSize=12;gradientColor=none;" parent="1" vertex="1">
                    <mxGeometry x="765" y="640" width="150" height="170" as="geometry"/>
                </mxCell>
                <mxCell id="171" value="" style="swimlane;fontStyle=1;align=center;verticalAlign=top;horizontal=1;startSize=0;collapsible=0;marginBottom=0;html=1;strokeColor=none;fillColor=none;fontSize=12;" parent="170" vertex="1">
                    <mxGeometry y="30" width="150" height="140" as="geometry"/>
                </mxCell>
                <mxCell id="172" value="Language &amp;amp; Cardname" style="html=1;align=center;verticalAlign=middle;rotatable=0;fontSize=12;gradientColor=none;" parent="171" vertex="1">
                    <mxGeometry width="130" height="30" relative="1" as="geometry">
                        <mxPoint x="10" y="20" as="offset"/>
                    </mxGeometry>
                </mxCell>
                <mxCell id="173" value="Cards" style="html=1;align=center;verticalAlign=middle;rotatable=0;fontSize=12;gradientColor=none;" parent="171" vertex="1">
                    <mxGeometry width="130" height="30" relative="1" as="geometry">
                        <mxPoint x="10" y="90" as="offset"/>
                    </mxGeometry>
                </mxCell>
                <mxCell id="174" value="" style="edgeStyle=none;endArrow=none;verticalAlign=middle;labelBackgroundColor=none;endSize=12;html=1;align=left;endFill=0;exitX=0.15;exitY=1;entryX=0.15;entryY=0;spacingLeft=4;fontSize=12;" parent="171" source="172" target="173" edge="1">
                    <mxGeometry relative="1" as="geometry"/>
                </mxCell>
                <mxCell id="175" value="" style="endArrow=open;startArrow=none;endFill=0;startFill=0;endSize=8;html=1;verticalAlign=bottom;labelBackgroundColor=none;fontSize=12;exitX=1;exitY=0.5;exitDx=0;exitDy=0;entryX=0;entryY=0.25;entryDx=0;entryDy=0;" parent="1" source="115" target="171" edge="1">
                    <mxGeometry x="0.1176" y="5" width="160" relative="1" as="geometry">
                        <mxPoint x="594" y="660" as="sourcePoint"/>
                        <mxPoint x="710" y="670" as="targetPoint"/>
                        <mxPoint as="offset"/>
                    </mxGeometry>
                </mxCell>
                <mxCell id="176" value="GET &quot;./db_cards/{currentcart}&quot;" style="edgeLabel;html=1;align=center;verticalAlign=middle;resizable=0;points=[];fontSize=9;rotation=23;labelBackgroundColor=none;" parent="175" vertex="1" connectable="0">
                    <mxGeometry x="0.0844" relative="1" as="geometry">
                        <mxPoint x="-8" y="-10" as="offset"/>
                    </mxGeometry>
                </mxCell>
                <mxCell id="177" style="edgeStyle=none;html=1;exitX=0;exitY=0.5;exitDx=0;exitDy=0;entryX=1;entryY=0.5;entryDx=0;entryDy=0;fontSize=9;startArrow=none;startFill=0;endArrow=classic;endFill=1;dashed=1;" parent="1" source="171" target="110" edge="1">
                    <mxGeometry relative="1" as="geometry"/>
                </mxCell>
                <mxCell id="178" value="data {CardInfos}" style="edgeLabel;html=1;align=center;verticalAlign=middle;resizable=0;points=[];fontSize=9;rotation=23;labelBackgroundColor=none;" parent="177" vertex="1" connectable="0">
                    <mxGeometry x="0.2382" y="1" relative="1" as="geometry">
                        <mxPoint x="24" y="2" as="offset"/>
                    </mxGeometry>
                </mxCell>
                <mxCell id="179" style="edgeStyle=none;html=1;exitX=0;exitY=0.5;exitDx=0;exitDy=0;entryX=0.111;entryY=1.006;entryDx=0;entryDy=0;entryPerimeter=0;fontSize=9;startArrow=classic;startFill=1;endArrow=none;endFill=0;" parent="1" source="107" target="59" edge="1">
                    <mxGeometry relative="1" as="geometry"/>
                </mxCell>
                <mxCell id="180" value="First Load" style="edgeLabel;html=1;align=center;verticalAlign=middle;resizable=0;points=[];fontSize=10;labelBackgroundColor=none;spacing=2;spacingTop=-4;" parent="179" vertex="1" connectable="0">
                    <mxGeometry relative="1" as="geometry">
                        <mxPoint y="-5" as="offset"/>
                    </mxGeometry>
                </mxCell>
                <mxCell id="185" value="&amp;lt;call&amp;gt;" style="edgeLabel;html=1;align=center;verticalAlign=middle;resizable=0;points=[];fontSize=9;fontColor=default;labelBackgroundColor=none;spacingTop=-2;" parent="179" vertex="1" connectable="0">
                    <mxGeometry relative="1" as="geometry">
                        <mxPoint y="6" as="offset"/>
                    </mxGeometry>
                </mxCell>
                <mxCell id="266" style="edgeStyle=none;html=1;exitX=0.5;exitY=1;exitDx=0;exitDy=0;entryX=0.5;entryY=0;entryDx=0;entryDy=0;endArrow=classic;endFill=1;" edge="1" parent="1" source="181" target="249">
                    <mxGeometry relative="1" as="geometry">
                        <Array as="points">
                            <mxPoint x="230" y="860"/>
                            <mxPoint x="260" y="860"/>
                        </Array>
                    </mxGeometry>
                </mxCell>
                <mxCell id="270" value="&amp;lt;call&amp;gt;" style="edgeLabel;html=1;align=center;verticalAlign=middle;resizable=0;points=[];fontSize=9;spacingLeft=-10;" vertex="1" connectable="0" parent="266">
                    <mxGeometry x="-0.1074" y="1" relative="1" as="geometry">
                        <mxPoint x="27" y="31" as="offset"/>
                    </mxGeometry>
                </mxCell>
                <mxCell id="181" value="btn_true Clicked" style="html=1;align=center;verticalAlign=middle;rounded=1;absoluteArcSize=1;arcSize=10;dashed=0;fontSize=12;gradientColor=none;" parent="1" vertex="1">
                    <mxGeometry x="170" y="790" width="120" height="30" as="geometry"/>
                </mxCell>
                <mxCell id="184" style="edgeStyle=none;html=1;entryX=0.5;entryY=0;entryDx=0;entryDy=0;fontSize=9;startArrow=classic;startFill=1;endArrow=none;endFill=0;" parent="1" target="85" edge="1">
                    <mxGeometry relative="1" as="geometry">
                        <mxPoint x="482" y="730" as="sourcePoint"/>
                        <Array as="points">
                            <mxPoint x="482" y="770"/>
                            <mxPoint x="534" y="770"/>
                        </Array>
                    </mxGeometry>
                </mxCell>
                <mxCell id="186" value="&amp;lt;call&amp;gt;" style="edgeLabel;html=1;align=center;verticalAlign=middle;resizable=0;points=[];fontSize=9;fontColor=default;rotation=0;labelBackgroundColor=none;spacingTop=2;" parent="184" vertex="1" connectable="0">
                    <mxGeometry relative="1" as="geometry">
                        <mxPoint x="12" y="4" as="offset"/>
                    </mxGeometry>
                </mxCell>
                <mxCell id="188" style="edgeStyle=none;html=1;exitX=1;exitY=0.25;exitDx=0;exitDy=0;entryX=0;entryY=0.7;entryDx=0;entryDy=0;fontSize=12;startArrow=none;startFill=0;" parent="1" source="171" target="161" edge="1">
                    <mxGeometry relative="1" as="geometry">
                        <mxPoint x="920" y="690" as="sourcePoint"/>
                        <mxPoint x="1000" y="709.0000000000001" as="targetPoint"/>
                    </mxGeometry>
                </mxCell>
                <mxCell id="189" value="Select &quot;*words&quot;" style="edgeLabel;html=1;align=center;verticalAlign=middle;resizable=0;points=[];fontSize=7;rotation=-27;labelBackgroundColor=none;" parent="188" vertex="1" connectable="0">
                    <mxGeometry x="-0.1256" y="-2" relative="1" as="geometry">
                        <mxPoint x="11" y="-11" as="offset"/>
                    </mxGeometry>
                </mxCell>
                <mxCell id="190" style="edgeStyle=none;html=1;exitX=1;exitY=0.75;exitDx=0;exitDy=0;entryX=0.15;entryY=0.95;entryDx=0;entryDy=0;fontSize=9;fontColor=default;startArrow=classic;startFill=1;endArrow=none;endFill=0;entryPerimeter=0;dashed=1;" parent="1" source="171" target="161" edge="1">
                    <mxGeometry relative="1" as="geometry"/>
                </mxCell>
                <mxCell id="191" value="word_1, ... , word_5" style="edgeLabel;html=1;align=center;verticalAlign=middle;resizable=0;points=[];fontSize=7;fontColor=default;labelBackgroundColor=none;rotation=-37;" parent="190" vertex="1" connectable="0">
                    <mxGeometry relative="1" as="geometry">
                        <mxPoint x="-9" as="offset"/>
                    </mxGeometry>
                </mxCell>
                <mxCell id="201" style="edgeStyle=none;html=1;exitX=1;exitY=0.5;exitDx=0;exitDy=0;endArrow=classic;endFill=1;entryX=0;entryY=0;entryDx=110;entryDy=295;entryPerimeter=0;" edge="1" parent="1" source="194" target="196">
                    <mxGeometry relative="1" as="geometry">
                        <mxPoint x="583" y="230" as="targetPoint"/>
                        <Array as="points">
                            <mxPoint x="583" y="124"/>
                            <mxPoint x="583" y="260"/>
                        </Array>
                    </mxGeometry>
                </mxCell>
                <mxCell id="203" value="show" style="edgeLabel;html=1;align=center;verticalAlign=middle;resizable=0;points=[];labelBackgroundColor=none;spacingRight=0;spacingBottom=2;" vertex="1" connectable="0" parent="201">
                    <mxGeometry x="0.8385" relative="1" as="geometry">
                        <mxPoint y="-5" as="offset"/>
                    </mxGeometry>
                </mxCell>
                <mxCell id="200" style="edgeStyle=none;html=1;exitX=1;exitY=0.5;exitDx=0;exitDy=0;entryX=0;entryY=0;entryDx=65.5;entryDy=230;entryPerimeter=0;" edge="1" parent="1" source="195" target="197">
                    <mxGeometry relative="1" as="geometry"/>
                </mxCell>
                <mxCell id="202" value="show" style="edgeLabel;html=1;align=center;verticalAlign=middle;resizable=0;points=[];labelBackgroundColor=none;spacingBottom=4;" vertex="1" connectable="0" parent="200">
                    <mxGeometry x="0.8153" y="2" relative="1" as="geometry">
                        <mxPoint y="-3" as="offset"/>
                    </mxGeometry>
                </mxCell>
                <mxCell id="196" value="settings.html" style="verticalAlign=top;align=center;shape=cube;size=10;direction=south;fontStyle=0;html=1;boundedLbl=1;spacingLeft=5;fontSize=12;gradientColor=none;" vertex="1" parent="1">
                    <mxGeometry x="685" y="150" width="295" height="210" as="geometry"/>
                </mxCell>
                <mxCell id="199" value="" style="group" vertex="1" connectable="0" parent="1">
                    <mxGeometry x="685" width="230" height="121" as="geometry"/>
                </mxCell>
                <mxCell id="197" value="info.html" style="verticalAlign=top;align=center;shape=cube;size=10;direction=south;fontStyle=0;html=1;boundedLbl=1;spacingLeft=5;fontSize=12;gradientColor=none;" vertex="1" parent="199">
                    <mxGeometry width="230" height="121" as="geometry"/>
                </mxCell>
                <mxCell id="198" value="btn_Back&amp;nbsp;Clicked" style="html=1;align=center;verticalAlign=middle;rounded=1;absoluteArcSize=1;arcSize=10;dashed=0;fontSize=12;gradientColor=none;" vertex="1" parent="199">
                    <mxGeometry x="45" y="45.5" width="140" height="30" as="geometry"/>
                </mxCell>
                <mxCell id="205" style="edgeStyle=none;html=1;exitX=0.5;exitY=1;exitDx=0;exitDy=0;entryX=0;entryY=0;entryDx=113.99999999999999;entryDy=0;entryPerimeter=0;endArrow=classic;endFill=1;" edge="1" parent="1" source="198" target="16">
                    <mxGeometry relative="1" as="geometry">
                        <Array as="points">
                            <mxPoint x="800" y="104"/>
                        </Array>
                    </mxGeometry>
                </mxCell>
                <mxCell id="206" value="show" style="edgeLabel;html=1;align=center;verticalAlign=middle;resizable=0;points=[];labelBackgroundColor=none;spacingBottom=-2;" vertex="1" connectable="0" parent="205">
                    <mxGeometry x="-0.4124" y="1" relative="1" as="geometry">
                        <mxPoint x="-97" y="4" as="offset"/>
                    </mxGeometry>
                </mxCell>
                <mxCell id="213" style="edgeStyle=none;html=1;exitX=0.5;exitY=1;exitDx=0;exitDy=0;entryX=0.771;entryY=-0.004;entryDx=0;entryDy=0;entryPerimeter=0;endArrow=classic;endFill=1;" edge="1" parent="1" source="208" target="16">
                    <mxGeometry relative="1" as="geometry">
                        <Array as="points">
                            <mxPoint x="770" y="320"/>
                            <mxPoint x="520" y="320"/>
                            <mxPoint x="520" y="173"/>
                        </Array>
                    </mxGeometry>
                </mxCell>
                <mxCell id="214" value="show" style="edgeLabel;html=1;align=center;verticalAlign=middle;resizable=0;points=[];labelBackgroundColor=none;spacingTop=7;" vertex="1" connectable="0" parent="213">
                    <mxGeometry x="-0.1035" y="1" relative="1" as="geometry">
                        <mxPoint x="-9" y="-11" as="offset"/>
                    </mxGeometry>
                </mxCell>
                <mxCell id="215" style="edgeStyle=none;html=1;exitX=1;exitY=0.5;exitDx=0;exitDy=0;entryX=0.5;entryY=0;entryDx=0;entryDy=0;entryPerimeter=0;endArrow=classic;endFill=1;" edge="1" parent="1" source="208" target="212">
                    <mxGeometry relative="1" as="geometry">
                        <mxPoint x="900" y="165.00000000000023" as="sourcePoint"/>
                        <mxPoint x="910" y="239.50000000000023" as="targetPoint"/>
                        <Array as="points">
                            <mxPoint x="905" y="225"/>
                        </Array>
                    </mxGeometry>
                </mxCell>
                <mxCell id="216" value="&amp;lt;save Settings&amp;gt;" style="edgeLabel;html=1;align=center;verticalAlign=middle;resizable=0;points=[];labelBackgroundColor=none;spacingTop=-2;" vertex="1" connectable="0" parent="215">
                    <mxGeometry x="-0.2729" y="1" relative="1" as="geometry">
                        <mxPoint x="18" y="-4" as="offset"/>
                    </mxGeometry>
                </mxCell>
                <mxCell id="208" value="btn_back Clicked" style="html=1;align=center;verticalAlign=middle;rounded=1;absoluteArcSize=1;arcSize=10;dashed=0;fontSize=12;gradientColor=none;" vertex="1" parent="1">
                    <mxGeometry x="700" y="210" width="140" height="30" as="geometry"/>
                </mxCell>
                <mxCell id="209" value="" style="group" vertex="1" connectable="0" parent="1">
                    <mxGeometry x="150" y="-10" width="330" height="238" as="geometry"/>
                </mxCell>
                <mxCell id="16" value="index.html&lt;br style=&quot;font-size: 12px;&quot;&gt;" style="verticalAlign=top;align=center;shape=cube;size=10;direction=south;fontStyle=0;html=1;boundedLbl=1;spacingLeft=5;fontSize=12;gradientColor=none;" parent="209" vertex="1">
                    <mxGeometry width="330" height="238" as="geometry"/>
                </mxCell>
                <mxCell id="192" value="btn_newGame&amp;nbsp;Clicked" style="html=1;align=center;verticalAlign=middle;rounded=1;absoluteArcSize=1;arcSize=10;dashed=0;fontSize=12;gradientColor=none;" parent="209" vertex="1">
                    <mxGeometry x="20" y="180" width="140" height="30" as="geometry"/>
                </mxCell>
                <mxCell id="194" value="btn_Settings Clicked" style="html=1;align=center;verticalAlign=middle;rounded=1;absoluteArcSize=1;arcSize=10;dashed=0;fontSize=12;gradientColor=none;" parent="209" vertex="1">
                    <mxGeometry x="20" y="119" width="140" height="30" as="geometry"/>
                </mxCell>
                <mxCell id="195" value="btn_Info Clicked" style="html=1;align=center;verticalAlign=middle;rounded=1;absoluteArcSize=1;arcSize=10;dashed=0;fontSize=12;gradientColor=none;" parent="209" vertex="1">
                    <mxGeometry x="20" y="59" width="140" height="30" as="geometry"/>
                </mxCell>
                <mxCell id="210" style="edgeStyle=none;html=1;exitX=1;exitY=0.5;exitDx=0;exitDy=0;entryX=0;entryY=0;entryDx=0;entryDy=230;entryPerimeter=0;endArrow=classic;endFill=1;" edge="1" parent="1" source="192" target="59">
                    <mxGeometry relative="1" as="geometry">
                        <Array as="points">
                            <mxPoint x="380" y="185"/>
                        </Array>
                    </mxGeometry>
                </mxCell>
                <mxCell id="211" value="show" style="edgeLabel;html=1;align=center;verticalAlign=middle;resizable=0;points=[];spacingLeft=-2;" vertex="1" connectable="0" parent="210">
                    <mxGeometry x="0.5623" y="3" relative="1" as="geometry">
                        <mxPoint x="17" y="-57" as="offset"/>
                    </mxGeometry>
                </mxCell>
                <mxCell id="212" value="local_storage" style="shape=cylinder3;whiteSpace=wrap;html=1;boundedLbl=1;backgroundOutline=1;size=15;labelBackgroundColor=none;" vertex="1" parent="1">
                    <mxGeometry x="860" y="250" width="90" height="99" as="geometry"/>
                </mxCell>
                <mxCell id="249" value="falseBtnClicked()" style="swimlane;fontStyle=1;align=center;verticalAlign=top;childLayout=stackLayout;horizontal=1;startSize=30;horizontalStack=0;resizeParent=1;resizeParentMax=0;resizeLast=0;collapsible=0;marginBottom=0;html=1;fontSize=12;gradientColor=none;" vertex="1" parent="1">
                    <mxGeometry x="160" y="930" width="200" height="120" as="geometry"/>
                </mxCell>
                <mxCell id="250" value="not currentTeam" style="html=1;strokeColor=none;fillColor=none;align=center;verticalAlign=middle;spacingLeft=4;spacingRight=4;rotatable=0;points=[[0,0.5],[1,0.5]];resizeWidth=1;fontSize=12;" vertex="1" parent="249">
                    <mxGeometry y="30" width="200" height="20" as="geometry"/>
                </mxCell>
                <mxCell id="251" value="" style="swimlane;fontStyle=1;align=center;verticalAlign=top;horizontal=1;startSize=0;collapsible=0;marginBottom=0;html=1;strokeColor=none;fillColor=none;fontSize=12;" vertex="1" parent="249">
                    <mxGeometry y="50" width="200" height="70" as="geometry"/>
                </mxCell>
                <mxCell id="254" value="cardInfos" style="html=1;align=center;verticalAlign=middle;rotatable=0;fontSize=12;gradientColor=none;" vertex="1" parent="251">
                    <mxGeometry width="180" height="30" relative="1" as="geometry">
                        <mxPoint x="10" y="30" as="offset"/>
                    </mxGeometry>
                </mxCell>
                <mxCell id="258" style="edgeStyle=none;html=1;entryX=0.5;entryY=0;entryDx=0;entryDy=0;endArrow=classic;endFill=1;" edge="1" parent="249" source="250" target="254">
                    <mxGeometry relative="1" as="geometry"/>
                </mxCell>
                <mxCell id="259" value="+1" style="edgeLabel;html=1;align=center;verticalAlign=middle;resizable=0;points=[];" vertex="1" connectable="0" parent="258">
                    <mxGeometry x="0.1937" y="1" relative="1" as="geometry">
                        <mxPoint x="11" y="-7" as="offset"/>
                    </mxGeometry>
                </mxCell>
                <mxCell id="260" value="trueBtnClicked()" style="swimlane;fontStyle=1;align=center;verticalAlign=top;childLayout=stackLayout;horizontal=1;startSize=30;horizontalStack=0;resizeParent=1;resizeParentMax=0;resizeLast=0;collapsible=0;marginBottom=0;html=1;fontSize=12;gradientColor=none;" vertex="1" parent="1">
                    <mxGeometry x="382" y="930" width="200" height="120" as="geometry"/>
                </mxCell>
                <mxCell id="261" value="not currentTeam" style="html=1;strokeColor=none;fillColor=none;align=center;verticalAlign=middle;spacingLeft=4;spacingRight=4;rotatable=0;points=[[0,0.5],[1,0.5]];resizeWidth=1;fontSize=12;" vertex="1" parent="260">
                    <mxGeometry y="30" width="200" height="20" as="geometry"/>
                </mxCell>
                <mxCell id="262" value="" style="swimlane;fontStyle=1;align=center;verticalAlign=top;horizontal=1;startSize=0;collapsible=0;marginBottom=0;html=1;strokeColor=none;fillColor=none;fontSize=12;" vertex="1" parent="260">
                    <mxGeometry y="50" width="200" height="70" as="geometry"/>
                </mxCell>
                <mxCell id="263" value="cardInfos" style="html=1;align=center;verticalAlign=middle;rotatable=0;fontSize=12;gradientColor=none;" vertex="1" parent="262">
                    <mxGeometry width="180" height="30" relative="1" as="geometry">
                        <mxPoint x="10" y="30" as="offset"/>
                    </mxGeometry>
                </mxCell>
                <mxCell id="264" style="edgeStyle=none;html=1;entryX=0.5;entryY=0;entryDx=0;entryDy=0;endArrow=classic;endFill=1;" edge="1" parent="260" source="261" target="263">
                    <mxGeometry relative="1" as="geometry"/>
                </mxCell>
                <mxCell id="265" value="+1" style="edgeLabel;html=1;align=center;verticalAlign=middle;resizable=0;points=[];" vertex="1" connectable="0" parent="264">
                    <mxGeometry x="0.1937" y="1" relative="1" as="geometry">
                        <mxPoint x="11" y="-7" as="offset"/>
                    </mxGeometry>
                </mxCell>
                <mxCell id="275" style="edgeStyle=none;html=1;exitX=1;exitY=0.5;exitDx=0;exitDy=0;entryX=0;entryY=0.5;entryDx=0;entryDy=0;fontSize=12;endArrow=classic;endFill=1;" edge="1" parent="1" source="272" target="274">
                    <mxGeometry relative="1" as="geometry"/>
                </mxCell>
                <mxCell id="276" value="&amp;lt;re-call&amp;gt;" style="edgeLabel;html=1;align=center;verticalAlign=middle;resizable=0;points=[];fontSize=12;labelBackgroundColor=none;spacingTop=3;" vertex="1" connectable="0" parent="275">
                    <mxGeometry x="0.325" y="-3" relative="1" as="geometry">
                        <mxPoint x="-13" y="2" as="offset"/>
                    </mxGeometry>
                </mxCell>
                <mxCell id="281" style="edgeStyle=none;html=1;exitX=0.5;exitY=1;exitDx=0;exitDy=0;entryX=0.5;entryY=0;entryDx=0;entryDy=0;fontSize=12;endArrow=classic;endFill=1;" edge="1" parent="1" source="272" target="277">
                    <mxGeometry relative="1" as="geometry"/>
                </mxCell>
                <mxCell id="282" value="&amp;lt;call&amp;gt;" style="edgeLabel;html=1;align=center;verticalAlign=middle;resizable=0;points=[];fontSize=12;labelBackgroundColor=none;spacingLeft=-2;" vertex="1" connectable="0" parent="281">
                    <mxGeometry x="0.3236" y="-4" relative="1" as="geometry">
                        <mxPoint x="24" y="-10" as="offset"/>
                    </mxGeometry>
                </mxCell>
                <mxCell id="283" value="" style="edgeStyle=none;html=1;fontSize=12;endArrow=classic;endFill=1;" edge="1" parent="1" source="272" target="277">
                    <mxGeometry relative="1" as="geometry"/>
                </mxCell>
                <mxCell id="289" style="edgeStyle=none;html=1;exitX=0.5;exitY=0;exitDx=0;exitDy=0;entryX=0;entryY=0.75;entryDx=0;entryDy=0;fontSize=12;startArrow=none;startFill=0;endArrow=classic;endFill=1;" edge="1" parent="1" source="272" target="108">
                    <mxGeometry relative="1" as="geometry">
                        <Array as="points">
                            <mxPoint x="230" y="1090"/>
                            <mxPoint x="370" y="1090"/>
                            <mxPoint x="370" y="900"/>
                            <mxPoint x="310" y="900"/>
                            <mxPoint x="310" y="683"/>
                        </Array>
                    </mxGeometry>
                </mxCell>
                <mxCell id="291" value="&amp;lt;call&amp;gt;" style="edgeLabel;html=1;align=center;verticalAlign=middle;resizable=0;points=[];fontSize=12;labelBackgroundColor=none;" vertex="1" connectable="0" parent="289">
                    <mxGeometry x="0.6452" y="-2" relative="1" as="geometry">
                        <mxPoint x="18" as="offset"/>
                    </mxGeometry>
                </mxCell>
                <mxCell id="272" value="Timer&amp;nbsp;expired" style="html=1;align=center;verticalAlign=middle;rounded=1;absoluteArcSize=1;arcSize=10;dashed=0;fontSize=12;gradientColor=none;" vertex="1" parent="1">
                    <mxGeometry x="170" y="1100" width="120" height="30" as="geometry"/>
                </mxCell>
                <mxCell id="285" style="edgeStyle=none;html=1;exitX=0.5;exitY=1;exitDx=0;exitDy=0;fontSize=12;endArrow=classic;endFill=1;startArrow=classic;startFill=1;" edge="1" parent="1" source="274" target="284">
                    <mxGeometry relative="1" as="geometry"/>
                </mxCell>
                <mxCell id="274" value="&lt;font style=&quot;font-size: 12px&quot;&gt;&lt;b&gt;countdown()&lt;/b&gt;&lt;/font&gt;" style="rounded=0;whiteSpace=wrap;html=1;labelBackgroundColor=none;fontSize=9;" vertex="1" parent="1">
                    <mxGeometry x="360" y="1100" width="148" height="30" as="geometry"/>
                </mxCell>
                <mxCell id="277" value="&lt;font style=&quot;font-size: 12px&quot;&gt;&lt;b&gt;roundOver()&lt;/b&gt;&lt;/font&gt;" style="rounded=0;whiteSpace=wrap;html=1;labelBackgroundColor=none;fontSize=9;" vertex="1" parent="1">
                    <mxGeometry x="155" y="1190" width="150" height="30" as="geometry"/>
                </mxCell>
                <mxCell id="284" value="&lt;font style=&quot;font-size: 12px&quot;&gt;&lt;b&gt;formatTime(time)&lt;/b&gt;&lt;/font&gt;" style="rounded=0;whiteSpace=wrap;html=1;labelBackgroundColor=none;fontSize=9;glass=0;shadow=0;sketch=0;" vertex="1" parent="1">
                    <mxGeometry x="360" y="1190" width="150" height="30" as="geometry"/>
                </mxCell>
            </root>
        </mxGraphModel>
    </diagram>
</mxfile>